<svg xmlns="http://www.w3.org/2000/svg" width="184" height="214.125" viewBox="0 0 184 214.125">
    <path id="cube" d="M186,52h0a.9.9,0,0,0-.1-.5v-.1a.758.758,0,0,0-.2-.4h0a.1.1,0,0,0-.1-.1c-.1-.1-.1-.2-.2-.3l-.1-.1a1.381,1.381,0,0,0-.4-.3h0l-90-49a2.118,2.118,0,0,0-1.9,0L3,50.2H3c-.1.1-.3.2-.4.3l-.1.1c-.1.1-.2.2-.2.3a.1.1,0,0,1-.1.1h0c-.1.1-.1.3-.2.4v.1c0,.2,0,.3,0,.4V164.1a.6.6,0,0,0,.1.4v.1a.758.758,0,0,0,.2.4h0c.1.1.1.2.2.3,0,.1.1.1.1.2l.2.2.2.2H3l90,49a1.645,1.645,0,0,0,1,.2,2.959,2.959,0,0,0,1-.2l90-49h0c.1,0,.1-.1.2-.2l.2-.2c.1-.1.1-.1.1-.2.1-.1.1-.2.2-.3h0c.1-.1.1-.3.2-.4v-.1c0-.1.1-.3.1-.4V52ZM6,55.3l86,45.9v13.6L6,160.7ZM96,6.4,179.8,52,96,96.7ZM92,96.7,8.2,52,92,6.4Zm0,22.6v90.3L8.2,164Zm4,0L179.8,164,96,209.6Zm0-4.5V101.2l86-45.9V160.6Z" transform="translate(-2 -0.975)" fill="#25a6b5"/>
</svg>