<?xml version="1.0" encoding="utf-8"?>
<!-- Generator: Adobe Illustrator 25.2.3, SVG Export Plug-In . SVG Version: 6.00 Build 0)  -->
<svg version="1.1" id="Ebene_1" xmlns="http://www.w3.org/2000/svg" xmlns:xlink="http://www.w3.org/1999/xlink" x="0px" y="0px"
	 viewBox="0 0 97 112" style="enable-background:new 0 0 97 112;" xml:space="preserve">
<style type="text/css">
	.st0{fill:#FFFFFF;}
</style>
<g>
	<path class="st0" d="M48.8,0c0,3.3,2.7,6,6,6s6-2.7,6-6H48.8z"/>
	<circle id="Ellipse_50-4_1_" class="st0" cx="72.5" cy="17.6" r="6"/>
	<circle id="Ellipse_50-5_1_" class="st0" cx="90.2" cy="35.3" r="6"/>
	<path class="st0" d="M13.5,0c0,3.3,2.7,6,6,6s6-2.7,6-6H13.5z"/>
	<circle id="Ellipse_50-8_1_" class="st0" cx="37.1" cy="17.6" r="6"/>
	<circle id="Ellipse_50-9_1_" class="st0" cx="54.8" cy="35.3" r="6"/>
	<circle id="Ellipse_50-10_1_" class="st0" cx="72.5" cy="52.9" r="6"/>
	<path class="st0" d="M-0.2,11.9v11.3c3.1,1.1,6.6-0.5,7.7-3.7C8.6,16.4,7,13,3.8,11.9C2.5,11.5,1.1,11.5-0.2,11.9z"/>
	<circle id="Ellipse_50-13_1_" class="st0" cx="19.4" cy="35.3" r="6"/>
	<circle id="Ellipse_50-14" class="st0" cx="37.1" cy="52.9" r="6"/>
	<circle id="Ellipse_50-15" class="st0" cx="54.8" cy="70.6" r="6"/>
	<path class="st0" d="M-0.2,47.3v11.3c3.1,1.1,6.6-0.5,7.7-3.7c1.1-3.1-0.5-6.6-3.7-7.7C2.5,46.8,1.1,46.8-0.2,47.3z"/>
	<circle id="Ellipse_50-19" class="st0" cx="19.4" cy="70.6" r="6"/>
	<circle id="Ellipse_50-20" class="st0" cx="37.1" cy="88.3" r="6"/>
	<path class="st0" d="M-0.2,82.6v11.3C3,95,6.4,93.4,7.5,90.3c1.1-3.1-0.5-6.6-3.7-7.7C2.5,82.2,1.1,82.2-0.2,82.6z"/>
	<circle id="Ellipse_50-25" class="st0" cx="19.4" cy="106" r="6"/>
</g>
</svg>
