<?xml version="1.0" encoding="utf-8"?>
<!-- Generator: Adobe Illustrator 25.2.3, SVG Export Plug-In . SVG Version: 6.00 Build 0)  -->
<svg version="1.1" id="Ebene_1" xmlns="http://www.w3.org/2000/svg" xmlns:xlink="http://www.w3.org/1999/xlink" x="0px" y="0px"
	 viewBox="0 0 95 112" style="enable-background:new 0 0 95 112;" xml:space="preserve">
<style type="text/css">
	.st0{opacity:0.3;}
	.st1{fill:#E5EAF5;}
</style>
<g class="st0">
	<g id="Gruppe_438">
		<circle id="Ellipse_50" class="st1" cx="17.7" cy="6" r="6"/>
		<circle id="Ellipse_50-2" class="st1" cx="35.4" cy="23.7" r="6"/>
		<circle id="Ellipse_50-3" class="st1" cx="53" cy="41.4" r="6"/>
		<circle id="Ellipse_50-4" class="st1" cx="70.7" cy="59.1" r="6"/>
		<circle id="Ellipse_50-5" class="st1" cx="88.4" cy="76.7" r="6"/>
	</g>
	<path class="st1" d="M0.1,17.7v12c1.5,0,3-0.6,4.2-1.8c2.3-2.3,2.3-6.1,0-8.5C3.1,18.3,1.6,17.7,0.1,17.7z"/>
	<circle id="Ellipse_50-7" class="st1" cx="17.7" cy="41.4" r="6"/>
	<circle id="Ellipse_50-8" class="st1" cx="35.4" cy="59.1" r="6"/>
	<circle id="Ellipse_50-9" class="st1" cx="53" cy="76.7" r="6"/>
	<circle id="Ellipse_50-10" class="st1" cx="70.7" cy="94.4" r="6"/>
	<path class="st1" d="M0.1,53.1v12c1.5,0,3-0.6,4.2-1.8c2.3-2.3,2.3-6.1,0-8.5C3.1,53.7,1.6,53.1,0.1,53.1z"/>
	<circle id="Ellipse_50-12" class="st1" cx="17.7" cy="76.7" r="6"/>
	<circle id="Ellipse_50-13" class="st1" cx="35.4" cy="94.4" r="6"/>
	<path class="st1" d="M47.1,111.5H59c-0.1-1.3-0.7-2.6-1.7-3.7c-2.3-2.3-6.1-2.3-8.5,0C47.8,108.9,47.2,110.2,47.1,111.5z"/>
	<path class="st1" d="M0.1,88.4v12c1.5,0,3-0.6,4.2-1.8c2.3-2.3,2.3-6.1,0-8.5C3.1,89,1.6,88.4,0.1,88.4z"/>
	<path class="st1" d="M11.7,111.5h11.9c-0.1-1.3-0.7-2.6-1.7-3.7c-2.3-2.3-6.1-2.3-8.5,0C12.4,108.9,11.9,110.2,11.7,111.5z"/>
</g>
</svg>
