<?xml version="1.0" encoding="UTF-8"?> <svg xmlns="http://www.w3.org/2000/svg" width="350" height="122.508" viewBox="0 0 350 122.508"><g transform="translate(-14.995 -1122.094)"><path d="M4,0H345.99a4.24,4.24,0,0,1,4,4.444V117.772c0,2.454.209,2.222-2,2.222H2c-2.209,0-2,.232-2-2.222V4.444A4.24,4.24,0,0,1,4,0Z" transform="translate(15 1123)" fill="#25a6b5"></path><path d="M34.318,1123.266,245.974,1243.85l23.961.181-23.018-121.115Z" fill="#fff" opacity="0.2"></path><path d="M15.3,1193.566l293.74-70.549,25.051.271L90.52,1242.848l-75.221.475Z" fill="#fff" opacity="0.1"></path><path d="M165.465,1222.6,199.6,1101.094l150.055-1L319.727,1222.6Z" transform="translate(0 22)" fill="#fff" opacity="0.1"></path></g></svg> 